<svg width="206" height="38" fill="none" xmlns="http://www.w3.org/2000/svg"><path d="M2.383 30V9.952H9.27c1.213 0 2.314.261 3.304.784a6.095 6.095 0 012.352 2.156c.597.915.896 1.979.896 3.192s-.299 2.287-.896 3.22a6.095 6.095 0 01-2.352 2.156c-.99.504-2.09.756-3.304.756H5.463V30h-3.08zm6.972-17.136H5.463v6.44h3.892c.728 0 1.344-.15 1.848-.448a3.217 3.217 0 001.148-1.204c.28-.504.42-1.027.42-1.568 0-.541-.14-1.055-.42-1.54a3.217 3.217 0 00-1.148-1.204c-.504-.317-1.12-.476-1.848-.476zM22.71 30.448c-1.027 0-1.942-.196-2.744-.588a4.613 4.613 0 01-1.876-1.708c-.448-.728-.672-1.559-.672-2.492 0-1.008.261-1.867.784-2.576.541-.728 1.26-1.279 2.156-1.652.896-.373 1.885-.56 2.968-.56.896 0 1.68.084 2.352.252.69.168 1.213.345 1.568.532V20.9c0-.933-.336-1.68-1.008-2.24-.672-.56-1.54-.84-2.604-.84a4.47 4.47 0 00-2.072.504 4.012 4.012 0 00-1.568 1.316l-2.072-1.596c.616-.859 1.428-1.53 2.436-2.016 1.026-.504 2.146-.756 3.36-.756 2.072 0 3.668.513 4.788 1.54 1.12 1.008 1.68 2.427 1.68 4.256V30h-2.94v-1.764h-.168c-.374.579-.934 1.092-1.68 1.54-.747.448-1.643.672-2.688.672zm.532-2.464c.784 0 1.474-.187 2.072-.56a4.021 4.021 0 001.4-1.456 3.918 3.918 0 00.532-1.988 6.225 6.225 0 00-1.512-.588 6.597 6.597 0 00-1.848-.252c-1.232 0-2.11.252-2.632.756a2.35 2.35 0 00-.784 1.792c0 .672.252 1.223.756 1.652.504.43 1.176.644 2.016.644zm15.171 7.364a2.89 2.89 0 01-.196.42c-.056.13-.093.224-.112.28h-3.22c.094-.205.224-.504.392-.896.187-.373.364-.737.532-1.092.168-.355.346-.756.532-1.204.206-.448.411-.887.616-1.316l1.064-2.324-5.964-13.496h3.36l4.088 9.744h.14l3.948-9.744h3.332l-7.392 17.024c-.205.485-.429.99-.672 1.512-.224.541-.373.905-.448 1.092zM59.067 30l-4.564-14.28h3.276l2.94 10.276h.112l3.22-10.276h3.108l3.22 10.276h.112l2.94-10.276h3.22L72.059 30h-3.164l-3.304-10.332h-.112L62.203 30h-3.136zm21.571-16.38c-.56 0-1.045-.196-1.456-.588a2.038 2.038 0 01-.588-1.456c0-.56.196-1.036.588-1.428.41-.392.896-.588 1.456-.588.56 0 1.036.196 1.428.588a1.9 1.9 0 01.616 1.428c0 .56-.205 1.045-.616 1.456a1.944 1.944 0 01-1.428.588zM79.126 30V15.72h3.024V30h-3.024zm8.452-4.144v-7.504h-2.492V15.72h2.492v-4.032h3.024v4.032h3.5v2.632h-3.5v6.86c0 .71.14 1.25.42 1.624.298.373.793.56 1.484.56.354 0 .653-.047.896-.14.26-.093.522-.224.784-.392v2.94c-.318.13-.654.233-1.008.308a6.187 6.187 0 01-1.26.112c-1.326 0-2.38-.383-3.164-1.148-.784-.784-1.176-1.857-1.176-3.22zM97.44 30V9.952h3.024v5.488l-.168 2.24h.168c.392-.69.989-1.26 1.792-1.708a5.399 5.399 0 012.716-.7c1.773 0 3.108.532 4.004 1.596.896 1.045 1.344 2.417 1.344 4.116V30h-2.996v-8.624c0-1.157-.308-1.997-.924-2.52-.598-.541-1.335-.812-2.212-.812a3.18 3.18 0 00-1.932.616c-.56.41-.999.952-1.316 1.624a4.734 4.734 0 00-.476 2.1V30H97.44z" fill="#fff"/><g fill-rule="evenodd" clip-rule="evenodd"><path d="M162.529 9.347v8.166h5.036c1.2 0 2.192-.403 2.976-1.21.806-.804 1.209-1.764 1.209-2.874 0-1.088-.403-2.037-1.209-2.843-.784-.827-1.776-1.241-2.976-1.241h-5.036v.002zm0 11.04v9.473h-3.008V6.472h7.978c2.028 0 3.749.676 5.167 2.025 1.439 1.35 2.158 2.994 2.158 4.932 0 1.982-.719 3.638-2.158 4.965-1.396 1.329-3.119 1.991-5.167 1.991h-4.97v.002zm15.335 4.573c0 .784.333 1.438.998 1.96.665.523 1.444.784 2.338.784 1.265 0 2.391-.469 3.384-1.404.992-.937 1.487-2.036 1.487-3.298-.938-.74-2.246-1.11-3.924-1.11-1.222 0-2.24.295-3.057.883-.817.587-1.226 1.314-1.226 2.185m3.892-11.628c2.224 0 3.979.593 5.266 1.78 1.286 1.187 1.928 2.815 1.928 4.883v9.865h-2.877v-2.221h-.131c-1.243 1.829-2.9 2.744-4.97 2.744-1.766 0-3.244-.523-4.431-1.568-1.188-1.046-1.782-2.352-1.782-3.92 0-1.656.626-2.972 1.879-3.952 1.254-.98 2.927-1.47 5.02-1.47 1.786 0 3.258.326 4.413.98v-.687c0-1.046-.415-1.932-1.242-2.662a4.264 4.264 0 00-2.91-1.094c-1.68 0-3.008.708-3.989 2.124l-2.65-1.666c1.461-2.091 3.619-3.136 6.476-3.136m23.707.522l-10.039 23.061h-3.106l3.728-8.069-6.606-14.992h3.27l4.774 11.498h.066l4.643-11.498h3.27z" fill="#fff"/><path d="M150.373 18.345c0-.946-.08-1.859-.232-2.732h-12.687v5.175h7.266a6.22 6.22 0 01-2.687 4.084v3.362h4.337c2.54-2.34 4.003-5.8 4.003-9.889" fill="#4285F4"/><path d="M137.454 31.478c3.63 0 6.687-1.19 8.916-3.244l-4.337-3.362c-1.207.812-2.761 1.287-4.579 1.287-3.51 0-6.488-2.363-7.553-5.548h-4.468v3.463c2.214 4.39 6.764 7.404 12.021 7.404" fill="#34A853"/><path d="M129.901 20.611a8.062 8.062 0 010-5.144v-3.463h-4.468A13.363 13.363 0 00124 18.04c0 2.17.518 4.22 1.433 6.035l4.468-3.463z" fill="#FABB05"/><path d="M137.454 9.92c1.982 0 3.759.68 5.161 2.015v.002l3.84-3.835c-2.332-2.17-5.373-3.502-9.001-3.502-5.257 0-9.807 3.014-12.021 7.405l4.468 3.462c1.065-3.184 4.043-5.547 7.553-5.547" fill="#E94235"/></g></svg>