<svg width="140" height="14" fill="none" xmlns="http://www.w3.org/2000/svg"><g clip-path="url(#clip0)"><path fill-rule="evenodd" clip-rule="evenodd" d="M7.914 7.922l3.32 5.804H8.27L5.085 8.157H2.89v5.569H.296V0h5.87c3.005 0 4.891 1.51 4.888 3.883 0 1.94-1.04 3.275-3.14 4.04zm.55-3.844c0-1.196-.765-1.804-2.297-1.804H2.889v3.607h3.278c1.53 0 2.297-.608 2.297-1.803zM45.667 0v13.726h-2.47V0h2.47zm-9.054 3.725c1.452 0 2.71.452 3.75 1.373 1.062.901 1.592 2.156 1.592 3.765 0 1.608-.53 2.863-1.591 3.785-1.042.902-2.3 1.352-3.751 1.352a5.53 5.53 0 01-3.725-1.352c-1.042-.922-1.572-2.178-1.572-3.785 0-1.608.524-2.864 1.566-3.765a5.456 5.456 0 013.73-1.373zm-2.787 5.138c0 .844.275 1.53.824 2.058.527.502 1.23.777 1.959.765a2.816 2.816 0 001.981-.765c.57-.528.845-1.216.845-2.058 0-.843-.275-1.53-.845-2.039a2.758 2.758 0 00-1.977-.785 2.713 2.713 0 00-1.963.785c-.55.51-.824 1.196-.824 2.039zM53.654 4v5.369c0 1.293-.701 2.15-2.034 2.15-1.355 0-2.038-.856-2.038-2.15v-5.37H47.1v5.782c0 2.238 1.414 4.219 4.516 4.219h.02c3.082 0 4.494-2.024 4.494-4.22V4h-2.476zm-27.447 6.588L28.678 4h2.638l-3.952 9.726h-2.318L21.1 4h2.638l2.47 6.588zm-5.097-2c0-1.41-.45-2.568-1.334-3.49-.884-.923-2.022-1.373-3.417-1.373a5.093 5.093 0 00-3.653 1.452c-.983.961-1.473 2.176-1.473 3.686 0 1.51.491 2.745 1.453 3.705A4.876 4.876 0 0016.241 14c2.142 0 3.653-.94 4.575-2.842l-1.846-1.06c-.608 1.197-1.492 1.784-2.689 1.784-1.473 0-2.514-.94-2.67-2.43h7.499v-.864zm-4.832-2.98c1.395 0 2.319.784 2.553 2.038h-5.22c.371-1.155 1.39-2.038 2.667-2.038zM60.328 14a2.883 2.883 0 01-2.881-2.882V1.373h2.47v2.63h2.122v2h-2.12v4.955a.847.847 0 00.846.846h1.276V14h-1.712zM74.415 0h-5.51v13.726h5.647c2.685 0 4.372-1.451 4.373-3.962 0-1.94-1.176-2.882-2.236-3.313v-.078c1.02-.452 1.726-1.314 1.726-2.804 0-2.255-1.686-3.569-4-3.569zm2.255 3.569c0 1.607-1.079 2.314-2.667 2.314H70.59V1.529h3.629c1.569 0 2.451.745 2.451 2.04zm.49 6.195c0 1.57-1.176 2.412-2.804 2.412h-3.766V7.372h3.766c1.746 0 2.804.785 2.804 2.392zM103.341 4h1.43l.137 1.568h.08c.528-1.02 1.548-1.744 3.097-1.744 2.216 0 3.51 1.392 3.51 3.685v6.216h-1.647v-5.96c0-1.57-.726-2.471-2.314-2.471-1.666 0-2.646 1.176-2.646 3.197v5.235h-1.647V4zm22.195 2.443c0 .816.712 1.282 2.464 1.615 2.175.415 3.238 1.345 3.233 2.843a2.888 2.888 0 01-.938 2.16c-.662.61-1.598.93-2.706.93-1.88 0-3.406-1.04-4.076-2.783l-.018-.048.043-.027 1.235-.763.064-.04.026.071c.514 1.403 1.466 2.17 2.722 2.17s2.033-.617 2.033-1.614c0-.858-.662-1.316-2.368-1.635-2.071-.39-3.211-1.393-3.211-2.822 0-1.717 1.673-2.614 3.32-2.614 1.84 0 3.096.78 3.733 2.323l.022.053-.047.027-1.143.666-.062.035-.027-.067c-.449-1.1-1.277-1.657-2.457-1.657-.889 0-1.842.31-1.842 1.177zm10.935 1.615c-1.75-.333-2.47-.799-2.47-1.615 0-.866.952-1.177 1.843-1.177 1.179 0 2.006.558 2.455 1.657l.028.067.063-.035 1.142-.666.048-.027-.022-.053c-.634-1.542-1.887-2.323-3.728-2.323-1.647 0-3.319.897-3.319 2.614 0 1.43 1.142 2.433 3.213 2.822 1.706.319 2.368.777 2.368 1.635 0 .996-.778 1.614-2.033 1.614-1.254 0-2.214-.767-2.721-2.17l-.027-.071-.064.04-1.235.763-.043.027.018.048c.67 1.743 2.196 2.784 4.076 2.784 1.108 0 2.044-.321 2.706-.93a2.902 2.902 0 00.939-2.16c-.005-1.499-1.059-2.43-3.237-2.844zm-44.44-1.615c0 .816.713 1.282 2.463 1.615 2.177.415 3.233 1.345 3.237 2.843a2.9 2.9 0 01-.939 2.16c-.662.61-1.597.93-2.705.93-1.88 0-3.407-1.04-4.077-2.783l-.017-.048.042-.027 1.235-.763.065-.04.026.071c.513 1.403 1.467 2.17 2.722 2.17 1.254 0 2.032-.617 2.032-1.614 0-.858-.661-1.316-2.367-1.635-2.071-.39-3.213-1.393-3.213-2.822 0-1.717 1.671-2.614 3.319-2.614 1.835 0 3.097.78 3.734 2.323l.022.053-.048.027-1.142.666-.063.035-.028-.067c-.448-1.1-1.276-1.657-2.455-1.657-.89 0-1.843.31-1.843 1.177zm7.491-3.783a1.079 1.079 0 01-.328-.815 1.048 1.048 0 01.328-.807 1.07 1.07 0 01.776-.31 1.081 1.081 0 01.785.31 1.038 1.038 0 01.332.807 1.068 1.068 0 01-.332.815 1.122 1.122 0 01-.785.302 1.098 1.098 0 01-.776-.302zm-.02 1.31h1.61v9.756h-1.61V3.97zm22.964 4.814c0-2.948-1.735-4.893-4.63-4.893-2.674 0-4.824 2.102-4.824 5.054 0 2.952 2.15 5.055 4.766 5.055a4.964 4.964 0 002.249-.489 4.5 4.5 0 001.592-1.389c.226-.324.43-.663.609-1.015l-1.201-.714-.053.104c-.526 1.049-1.311 2.12-3.138 2.12s-3.057-1.296-3.198-3.311h7.824l.004-.522zm-7.687-.93c.392-1.617 1.527-2.578 3.06-2.578 1.827 0 2.882 1.278 3.002 2.578h-6.062zm-27.791 2.173V4.089h1.611v6.205C88.6 12.53 86.97 14 84.594 14s-4.003-1.473-4.003-3.706V4.09h1.607v5.938c0 1.546.686 2.539 2.395 2.539s2.395-.993 2.395-2.54z" fill="#191C1F"/></g><defs><clipPath id="clip0"><path fill="#fff" transform="translate(.296)" d="M0 0h139.407v14H0z"/></clipPath></defs></svg>